<svg xmlns="http://www.w3.org/2000/svg" viewBox="0 0 1024 1024">
  <defs>
    <linearGradient id="bg" x1="120" y1="80" x2="900" y2="920" gradientUnits="userSpaceOnUse">
      <stop offset="0" stop-color="#0F8BFF"/>
      <stop offset="0.52" stop-color="#1CBF7A"/>
      <stop offset="1" stop-color="#101B32"/>
    </linearGradient>
    <linearGradient id="pulse" x1="210" y1="520" x2="815" y2="520" gradientUnits="userSpaceOnUse">
      <stop offset="0" stop-color="#EAF7FF"/>
      <stop offset="1" stop-color="#FFFFFF"/>
    </linearGradient>
    <filter id="shadow" x="-20%" y="-20%" width="140%" height="140%">
      <feDropShadow dx="0" dy="28" stdDeviation="34" flood-color="#061224" flood-opacity="0.38"/>
    </filter>
  </defs>
  <rect x="88" y="88" width="848" height="848" rx="210" fill="url(#bg)"/>
  <path d="M202 692C266 778 382 832 512 832C689 832 832 689 832 512C832 336 689 192 512 192C374 192 256 280 212 403" fill="none" stroke="#FFFFFF" stroke-opacity="0.18" stroke-width="42" stroke-linecap="round"/>
  <circle cx="512" cy="512" r="292" fill="none" stroke="#FFFFFF" stroke-opacity="0.18" stroke-width="20"/>
  <path filter="url(#shadow)" d="M210 544H338L405 404L497 662L594 314L685 544H814" fill="none" stroke="url(#pulse)" stroke-width="58" stroke-linecap="round" stroke-linejoin="round"/>
  <path d="M210 544H338L405 404L497 662L594 314L685 544H814" fill="none" stroke="#0B1728" stroke-opacity="0.18" stroke-width="18" stroke-linecap="round" stroke-linejoin="round"/>
  <circle cx="744" cy="286" r="82" fill="#FFFFFF" fill-opacity="0.96"/>
  <path d="M744 242V300" stroke="#E03E35" stroke-width="26" stroke-linecap="round"/>
  <circle cx="744" cy="326" r="24" fill="#E03E35"/>
  <path d="M330 244C385 210 447 192 512 192" fill="none" stroke="#FFFFFF" stroke-opacity="0.55" stroke-width="24" stroke-linecap="round"/>
</svg>
